<svg width="100" height="100" xmlns="http://www.w3.org/2000/svg">
 <!-- Created with Method Draw - http://github.com/duopixel/Method-Draw/ -->
 <g>
  <title>background</title>
  <rect fill="#fff" id="canvas_background" height="102" width="102" y="-1" x="-1"/>
 </g>
 <g>
  <title>Layer 1</title>
  <ellipse ry="47.832457" rx="48.082453" id="svg_1" cy="50" cx="50.000001" fill-opacity="null" stroke-width="1.5" stroke="#1c72c9" fill="#fff"/>
  <line stroke-linecap="null" stroke-linejoin="null" id="svg_25" y2="69.572556" x2="87.415982" y1="69.905883" x1="10.917383" fill-opacity="null" stroke-opacity="null" stroke-width="1.5" stroke="#884D58" fill="none"/>
  <line stroke-linecap="null" stroke-linejoin="null" id="svg_26" y2="26.740008" x2="87.415982" y1="27.073335" x1="10.917382" fill-opacity="null" stroke-opacity="null" stroke-width="1.5" stroke="#884D58" fill="none"/>
  <line stroke="#884D58" stroke-linecap="null" stroke-linejoin="null" id="svg_27" y2="48" x2="75.916193" y1="48" x1="69.582976" fill-opacity="null" stroke-opacity="null" stroke-width="1.5" fill="none"/>
  <line stroke-linecap="null" stroke-linejoin="null" id="svg_29" y2="48" x2="22.250508" y1="48" x1="15.917291" fill-opacity="null" stroke-opacity="null" stroke-width="1.5" stroke="#884D58" fill="none"/>
  <line stroke="#884D58" stroke-linecap="null" stroke-linejoin="null" id="svg_30" y2="48" x2="42.083479" y1="48" x1="35.750262" fill-opacity="null" stroke-opacity="null" stroke-width="1.5" fill="none"/>
  <line stroke="#884D58" stroke-linecap="null" stroke-linejoin="null" id="svg_31" y2="48" x2="58.583177" y1="48" x1="52.24996" fill-opacity="null" stroke-opacity="null" stroke-width="1.5" fill="none"/>
  <path id="svg_32" d="m45.598987,91.311528c-0.591312,-0.217217 0.180305,-0.651506 0.472433,-0.843616c0.196773,-0.147949 -1.127723,0.020754 -0.568532,-0.492837c0.613514,-0.419576 0.381761,-1.129405 -0.231488,-1.459361c-0.843958,-0.464202 -1.926809,-0.861494 -2.238598,-1.728285c-0.315265,-0.539886 0.432391,-1.108495 -0.048497,-1.596026c-0.387072,-0.633007 0.065138,-1.293101 0.346219,-1.879484c0.129262,-0.811142 -0.662575,-1.452601 -1.098037,-2.118999c-0.539201,-0.636825 -0.85002,-1.378872 -0.894685,-2.152174c-0.117262,-0.330078 0.012508,-0.84268 0.480757,-0.397668c0.980583,0.63961 2.057098,1.246522 2.74339,2.121993c0.129908,0.316227 0.650085,1.232745 0.679132,0.402786c0.013604,-1.14072 0.4413,-2.384846 1.537238,-3.149273c0.745438,-0.553311 1.147449,0.415514 1.182231,0.907835c0.194023,0.96868 -0.127594,1.929284 -0.485988,2.844334c-0.13157,0.425253 -0.474212,1.590602 0.503007,1.160918c2.251162,-0.707993 4.978611,0.03559 6.444921,1.556509c0.67405,0.73641 0.96924,1.682525 0.962576,2.590956c-0.347083,0.533699 0.942516,-0.009998 0.475228,0.605729c-0.275087,0.682079 -1.052318,1.052183 -1.596745,1.567013c-0.553999,0.41254 -0.142948,1.294568 -1.059103,1.424534c-1.33678,0.335695 -2.740509,0.482741 -4.132144,0.568333c-0.778755,0.129966 -1.156689,-0.595426 -0.41028,-0.89699c0.357849,-0.449378 1.381644,-0.48087 1.685834,-0.55206c-0.726914,0.057938 -1.623381,-0.18375 -2.235914,0.182976c-0.370957,0.490556 -0.668062,1.136234 -1.445963,1.276253c-0.349587,0.079092 -0.709026,0.142518 -1.066993,0.056604l-0.000001,0z" fill-opacity="null" stroke-opacity="null" stroke-width="1.5" stroke="#884D58" fill="none"/>
 </g>
</svg>