<svg width="100" height="100" xmlns="http://www.w3.org/2000/svg">
 <!-- Created with Method Draw - http://github.com/duopixel/Method-Draw/ -->
 <g>
  <title>background</title>
  <rect fill="#fff" id="canvas_background" height="102" width="102" y="-1" x="-1"/>
 </g>
 <g>
  <title>Layer 1</title>
  <ellipse ry="47.832457" rx="48.082453" id="svg_1" cy="50" cx="50.000001" fill-opacity="null" stroke-width="1.5" stroke="#1c72c9" fill="#fff"/>
  <path stroke="#884D58" id="svg_33" d="m66.451016,22.575516c-4.123487,-4.572752 -8.570894,-8.235812 -12.21914,-8.735197c-0.198608,-0.032393 -0.40431,-0.051288 -0.621833,-0.056687l-24.010326,0c-0.38303,0 -0.761332,0.170061 -1.030872,0.485889c-0.267175,0.307729 -0.425589,0.73963 -0.425589,1.17963l0,69.509063c0,0.4373 0.148956,0.855704 0.425589,1.174231c0.276633,0.313128 0.640748,0.483189 1.030872,0.483189l43.41956,0c0.38303,0 0.74951,-0.167362 1.026143,-0.483189c0.276633,-0.315828 0.430318,-0.734232 0.430318,-1.174231l0,-46.253895c-0.085118,-5.369069 -3.768829,-11.224027 -8.024722,-16.128802zm5.107071,60.71178l-40.506638,0l0,-66.183426l22.560958,0l0,0.005399c0.983584,-0.067485 1.832398,1.041961 2.482604,3.579379c0.591096,2.415946 0.740052,5.566124 0.737688,7.749923c0.004729,1.600733 -0.063838,2.675087 -0.063838,2.675087l-0.115855,1.759996l1.551036,0.018896c0.007093,0 3.584407,0.048589 7.093154,0.95828c3.371613,0.831409 6.007901,2.488829 6.253797,4.364899c0.009458,0.167362 0.011822,0.334723 0.009458,0.491287l0,44.580279l-0.002364,0z" fill-opacity="null" stroke-opacity="null" stroke-width="1.5" fill="none"/>
  <path stroke="#884D58" id="svg_34" d="m52.217948,65.240233c-0.309926,0.029191 -0.62679,0.049372 -0.952682,0.049372l0,0c-0.291504,0 -0.574669,-0.015973 -0.850895,-0.039655l0,0l-2.391759,3.076696l-0.588204,-0.166893c-0.690364,-0.194026 -1.360932,-0.437446 -2.005772,-0.729533l0,0l-0.559021,-0.253144l0.143836,-3.864637c-0.508308,-0.356092 -0.98255,-0.752498 -1.421739,-1.187135l0,0l-3.781518,0.812996l-0.345355,-0.507726c-0.405115,-0.595985 -0.750468,-1.220523 -1.056549,-1.851959l0,0l-0.265797,-0.551522l2.567577,-2.844398c-0.160527,-0.602276 -0.266835,-1.224023 -0.321731,-1.857546l0,0l-3.40247,-1.800517l0.06184,-0.609941c0.072974,-0.729545 0.214021,-1.427762 0.382531,-2.098872l0,0l0.15045,-0.595336l3.79507,-0.525756c0.270647,-0.571665 0.589265,-1.113419 0.948158,-1.622506l0,0l-1.44812,-3.568367l0.437083,-0.428402c0.513846,-0.500731 1.063855,-0.954851 1.63781,-1.370051l0,0l0.49719,-0.35883l3.276001,2.059218c0.552094,-0.254522 1.129528,-0.463857 1.727814,-0.624522l0,0l1.187551,-3.687989l0.612188,-0.046582c0.329726,-0.024333 0.684116,-0.052859 1.069416,-0.052859l0,0c0.384265,0 0.737599,0.028526 1.067339,0.052859l0,0l0.612171,0.046582l1.2004,3.726267c0.57536,0.160623 1.133006,0.365794 1.667371,0.614784l0,0l3.321866,-2.088487l0.49892,0.358868c0.57397,0.414504 1.124991,0.87001 1.637833,1.368662l0,0l0.438801,0.428402l-1.492594,3.674096c0.325209,0.472896 0.618436,0.973638 0.868949,1.500095l0,0l3.913554,0.542444l0.152172,0.595297c0.170942,0.670443 0.311315,1.368659 0.38252,2.099596l0,0l0.061859,0.609902l-3.521305,1.863099c-0.052801,0.577955 -0.146611,1.146841 -0.286634,1.701099l0,0l2.653044,2.933456l-0.266824,0.553554c-0.30505,0.633574 -0.648678,1.260173 -1.055527,1.854087l0,0l-0.345351,0.506274l-3.875324,-0.831031c-0.410676,0.410994 -0.855389,0.789332 -1.330701,1.130803l0,0l0.147657,3.940442l-0.560414,0.253847c-0.645548,0.290699 -1.315062,0.534806 -2.005402,0.72884l0,0l-0.590315,0.166906l-2.396968,-3.084351l0,0l0.000001,0.000001zm3.075523,0.986871c0.206738,-0.068872 0.409985,-0.143302 0.611135,-0.222586l0,0l-0.138276,-3.721359l0.436043,-0.280289c0.653176,-0.424199 1.247988,-0.933297 1.776103,-1.511194l0,0l0.351605,-0.385266l3.66688,0.785832c0.11014,-0.184305 0.216793,-0.372766 0.319628,-0.565385l0,0l-2.508152,-2.775564l0.155652,-0.495877c0.221307,-0.714228 0.347087,-1.47994 0.384256,-2.278966l0,0l0.022932,-0.520236l3.331583,-1.762257c-0.034737,-0.213517 -0.074676,-0.425622 -0.120203,-0.638457l0,0l-3.706825,-0.513203l-0.199411,-0.479886c-0.298114,-0.717736 -0.692462,-1.389526 -1.16324,-2.009168l0,0l-0.311309,-0.413105l1.409907,-3.470999c-0.1633,-0.143297 -0.330767,-0.282363 -0.502745,-0.417279l0,0l-3.147091,1.977182l-0.463493,-0.244835c-0.686525,-0.361633 -1.429014,-0.63634 -2.212146,-0.81436l0,0l-0.506559,-0.116129l-1.136466,-3.527354c-0.110498,-0.005545 -0.217852,-0.008354 -0.322429,-0.008354l0,0c-0.106674,0 -0.214024,0.002809 -0.325213,0.008354l0,0l-1.128464,3.504414l-0.513869,0.109882c-0.796687,0.171053 -1.556524,0.449948 -2.264255,0.816448l0,0l-0.462453,0.240615l-3.096026,-1.945864c-0.170936,0.134916 -0.338759,0.273982 -0.500651,0.417279l0,0l1.372367,3.379904l-0.322406,0.413768c-0.502748,0.646076 -0.920724,1.354068 -1.234116,2.114196l0,0l-0.19838,0.481951l-3.58766,0.496541c-0.04551,0.212834 -0.085804,0.42494 -0.119506,0.638457l0,0l3.216244,1.701769l0.019796,0.524346c0.033694,0.846407 0.17511,1.658695 0.418308,2.418132l0,0l0.159144,0.499312l-2.428963,2.689342c0.102157,0.19332 0.208467,0.381778 0.31966,0.566073l0,0l3.566791,-0.768474l0.355092,0.385278c0.547212,0.599515 1.172253,1.120393 1.860885,1.552986l0,0l0.444381,0.277449l-0.135855,3.66435c0.201516,0.079283 0.405459,0.153714 0.612183,0.222586l0,0l2.257667,-2.905617l0.515592,0.063256c0.389133,0.049386 0.767838,0.081379 1.144818,0.081379l0,0c0.405456,0 0.814383,-0.035454 1.232361,-0.094574l0,0l0.520125,-0.073001l2.275024,2.928557l0,0l0.000001,0.000001zm1.029112,-7.54569l0.497521,0.764967l-3.154044,2.053711l-1.119437,-1.724069l0,0c-0.407212,0.099441 -0.835255,0.157904 -1.280664,0.157904l0,0c-3.082137,0 -5.579524,-2.500173 -5.579524,-5.581734l0,0c0,-3.084324 2.497387,-5.583807 5.579524,-5.583807l0,0c3.078659,0 5.576719,2.499483 5.576719,5.583807l0,0c0,1.266401 -0.425247,2.439636 -1.138186,3.376435l0,0l0.61809,0.952788m-2.121821,0.294148l0.098325,-0.062566l-0.899168,-1.384638l0.521152,-0.52161c0.681344,-0.683627 1.099306,-1.616226 1.099306,-2.654556l0,0c-0.003826,-2.075913 -1.68334,-3.756862 -3.755109,-3.761012l0,0c-2.076648,0.004151 -3.754424,1.683 -3.7579,3.761012l0,0c0.003476,2.073846 1.682988,3.754754 3.7579,3.758944l0,0c0.463467,0 0.909593,-0.095288 1.341454,-0.260802l0,0l0.688621,-0.264274l0.90542,1.389503l0,0z" fill-opacity="null" stroke-opacity="null" stroke-width="0.5" fill="none"/>
 </g>
</svg>